<svg viewBox="0 0 340.94 399" xmlns="http://www.w3.org/2000/svg"><path d="m340.94 182v34.9c-10.82.18-21.62.09-32.44.09-12.16 0-24.33 0-36.48 0-18.31 0-66.7.26-190.94 1.49 7.11 7.63 13 13.58 16.6 17.15 24.92 24.72 108.57 103.51 146.81 136.57l-26.81 26.8q-100.8-92.34-202.17-184.1a43.26 43.26 0 0 1 -3.58-3.61l-11.93-11.94 11.78-11.76.1-.11 2.78-2.76q101.49-92.38 203.02-184.72l27.84 27.85a44.7 44.7 0 0 1 -3.72 3.15c-13.39 10.46-75.39 69-161.48 151h191.25c23.13 0 46.25-.08 69.37 0z" fill="#4999D1"/></svg>